<?xml version="1.0" encoding="utf-8"?>
<!-- Generator: Adobe Illustrator 25.2.1, SVG Export Plug-In . SVG Version: 6.00 Build 0)  -->
<svg version="1.1" id="Layer_1" xmlns="http://www.w3.org/2000/svg" xmlns:xlink="http://www.w3.org/1999/xlink" x="0px" y="0px"
	 viewBox="0 0 77 76" style="enable-background:new 0 0 77 76;" xml:space="preserve">
<style type="text/css">
	.st0{fill:#DEDEDE;}
</style>
<path class="st0" d="M24.6,46.6c1.7,1.7,1.7,4.5-0.1,6.2c-1.7,1.7-4.5,1.7-6.2-0.1c-1.7-1.7-1.7-4.5,0.1-6.2
	C20.1,44.8,22.9,44.9,24.6,46.6z M26.9,36.2l-0.1,13.1c0,2.9-2.5,5.3-5.4,5.3c-3.1,0-5.4-2.6-5.3-5.4l0.3-25.5
	c0-0.5-0.3-0.8-0.8-0.8c-0.5,0-0.8,0.3-0.8,0.8l-0.3,25.5c0,3.8,3,7.1,7,7.1c3.8,0,7.1-3,7.1-7l0.1-13.1c0-0.5-0.3-0.8-0.8-0.8
	C27.3,35.4,26.9,35.8,26.9,36.2z"/>
<path class="st0" d="M51.8,52.8c-1.7-1.7-1.7-4.5-0.1-6.2c1.7-1.7,4.5-1.7,6.2-0.1c1.7,1.7,1.7,4.5,0.1,6.2
	C56.3,54.4,53.5,54.4,51.8,52.8z"/>
<path class="st0" d="M49.5,49.3l-0.1-13.1c0-0.4-0.4-0.8-0.9-0.8c-0.5,0-0.8,0.4-0.8,0.8l0.1,13.1c0,4,3.3,7,7.1,7c4,0,7-3.2,7-7.1
	l-0.3-25.5c0-0.5-0.4-0.8-0.8-0.8c-0.5,0-0.8,0.4-0.8,0.8l0.3,25.5c0.1,2.7-2.1,5.3-5.3,5.4C52,54.6,49.5,52.2,49.5,49.3z"/>
<path class="st0" d="M55.7,42.8c0,0.4,0.4,0.8,0.9,0.8c0.4,0,0.8-0.4,0.8-0.9l-0.2-18.5c0-0.5-0.4-0.8-0.8-0.8
	c-0.5,0-0.8,0.4-0.8,0.8L55.7,42.8z"/>
<path class="st0" d="M51.6,32.7c0,0.2,0.1,0.4,0.3,0.6s0.3,0.3,0.5,0.2c0.5,0,0.8-0.4,0.8-0.8L53,18c0-0.5-0.4-0.8-0.8-0.8
	c-0.5,0-0.8,0.4-0.8,0.8L51.6,32.7z"/>
<path class="st0" d="M35.7,36.9c-1.4-1.4-1.4-3.6,0-5c1.4-1.4,3.6-1.4,5,0c1.4,1.4,1.4,3.6,0,5C39.3,38.3,37,38.3,35.7,36.9z"/>
<path class="st0" d="M38.1,38.6c2.3,0,4.2-1.8,4.2-4.2l0.1-6.8l0.1-6.8c0-0.4,0.4-0.8,0.9-0.8c0.5,0,0.8,0.4,0.8,0.8L44,34.4
	c-0.1,3.5-2.9,5.8-5.9,5.8c-3.2,0-5.8-2.6-5.8-5.9l0.2-23.5c0-0.5,0.4-0.8,0.8-0.8c0.5,0,0.8,0.4,0.8,0.8l-0.2,23.5
	C33.9,36.6,35.8,38.6,38.1,38.6z"/>
<path class="st0" d="M36,22.7c0-0.5,0.4-0.8,0.8-0.8c0.4,0,0.8,0.4,0.8,0.8l-0.1,6.2c0,0.4-0.4,0.8-0.9,0.8c-0.5,0-0.8-0.4-0.8-0.8
	L36,22.7z"/>
<path class="st0" d="M39.3,21.1l0.1-10c0-0.4,0.4-0.8,0.9-0.8c0.5,0,0.8,0.4,0.8,0.8L41,21c0,0.4-0.4,0.8-0.9,0.8
	C39.7,21.9,39.3,21.5,39.3,21.1z"/>
<path class="st0" d="M20.6,41.8c0,0.4-0.4,0.8-0.9,0.8c-0.4,0-0.8-0.4-0.8-0.9l0.2-18.5c0-0.5,0.4-0.8,0.8-0.8
	c0.5,0,0.8,0.4,0.8,0.8L20.6,41.8z"/>
<path class="st0" d="M24.7,32.7c0,0.2-0.1,0.4-0.3,0.6c-0.2,0.2-0.3,0.3-0.5,0.2c-0.5,0-0.8-0.4-0.8-0.8L23.2,18
	c0-0.5,0.4-0.8,0.8-0.8c0.5,0,0.8,0.4,0.8,0.8L24.7,32.7z"/>
</svg>
