<?xml version="1.0" standalone="no"?>
<!DOCTYPE svg PUBLIC "-//W3C//DTD SVG 20010904//EN"
 "http://www.w3.org/TR/2001/REC-SVG-20010904/DTD/svg10.dtd">
<svg version="1.0" xmlns="http://www.w3.org/2000/svg"
 width="297.000000pt" height="297.000000pt" viewBox="0 0 297.000000 297.000000"
 preserveAspectRatio="xMidYMid meet">
<metadata>
Created by potrace 1.11, written by Peter Selinger 2001-2013
</metadata>
<g transform="translate(0.000000,297.000000) scale(0.100000,-0.100000)"
fill="#000000" stroke="none">
<path d="M1853 2798 c-42 -40 -100 -95 -128 -123 -29 -27 -124 -117 -210 -200
-87 -82 -179 -170 -205 -195 -95 -91 -509 -485 -615 -585 -519 -490 -563 -536
-611 -630 -60 -115 -77 -182 -77 -300 -1 -117 18 -196 67 -295 40 -78 59 -104
137 -180 116 -113 251 -170 419 -176 183 -6 336 52 474 180 44 41 351 334 431
411 29 28 124 118 211 200 277 262 271 255 242 308 -16 31 -39 46 -70 47 -28
0 -50 -16 -139 -101 -30 -30 -129 -124 -218 -209 -226 -215 -238 -226 -420
-399 -177 -169 -204 -191 -272 -226 -47 -24 -67 -30 -148 -44 -109 -20 -248
12 -349 79 -204 137 -276 415 -161 630 35 67 74 108 324 345 225 214 226 215
430 410 98 94 195 186 215 205 21 19 113 107 205 195 93 88 185 176 205 195
20 19 110 105 200 190 89 85 177 169 195 185 35 33 52 63 49 83 -1 6 -2 16 -3
22 -2 20 -46 50 -73 50 -21 0 -47 -18 -105 -72z"/>
<path d="M2864 2669 c-20 -8 -41 -27 -298 -272 -93 -89 -185 -177 -205 -196
-70 -65 -376 -357 -453 -432 -63 -61 -78 -81 -75 -100 7 -40 19 -60 41 -69 38
-14 73 0 129 54 158 151 397 378 428 407 84 79 389 370 460 440 75 74 78 78
69 109 -5 18 -14 38 -20 45 -14 17 -52 24 -76 14z"/>
<path d="M2115 2484 c-33 -31 -134 -127 -224 -213 -90 -86 -182 -174 -206
-196 -54 -52 -362 -345 -430 -410 -29 -27 -119 -113 -200 -190 -81 -77 -151
-148 -157 -158 -15 -29 8 -84 40 -94 54 -19 45 -25 388 304 99 94 193 183 209
198 17 15 108 102 204 194 96 91 224 213 285 271 255 243 256 244 256 276 0
41 -33 74 -73 74 -25 0 -45 -12 -92 -56z"/>
<path d="M515 1126 c-356 -113 -392 -591 -57 -749 62 -30 75 -32 172 -32 95 1
111 3 165 30 74 35 163 123 194 190 107 228 -11 485 -258 564 -45 15 -166 13
-216 -3z"/>
</g>
</svg>
