<?xml version="1.0" encoding="utf-8"?>
<!-- Generator: Adobe Illustrator 24.1.3, SVG Export Plug-In . SVG Version: 6.00 Build 0)  -->
<svg version="1.1" id="Layer_1" xmlns="http://www.w3.org/2000/svg" xmlns:xlink="http://www.w3.org/1999/xlink" x="0px" y="0px"
	 viewBox="0 0 81 62.4" style="enable-background:new 0 0 81 62.4;" xml:space="preserve">
<style type="text/css">
	.st0{fill:#FFFFFF;}
</style>
<g>
	<ellipse class="st0" cx="23.7" cy="40.6" rx="2.1" ry="2.1"/>
	<path class="st0" d="M29,38.4L29,38.4c-0.5-1,0.1-2.3,1.1-2.7L43.9,30c1-0.5,2.3,0.1,2.7,1.1l0,0c0.5,1-0.1,2.3-1.1,2.7l-13.8,5.7
		C30.5,40,29.4,39.5,29,38.4z"/>
	<path class="st0" d="M0.6,27.6l6.6,3.9l1.9,4.7l-2.9,1.2c-0.9,0.3-1.2,1.3-0.9,2.2l3.2,7.8c0.3,0.6,0.9,1,1.6,1
		c0.2,0,0.4,0,0.5-0.1l2.9-1.2l2,4.8c0.1,0.3,0.5,0.7,0.9,0.9c0.3,0.1,0.4,0.1,0.7,0.1s0.5,0,0.7-0.1l18.7-7.7l10.7,10.7
		c0,0.1,0,0.1,0,0.1c0,1.8,0.7,3.4,1.9,4.6c1.3,1.2,2.8,1.9,4.6,1.9s3.4-0.7,4.6-1.9c0-0.1,0-0.1,0-0.1h21c0.9,0,1.7-0.8,1.7-1.7
		v-5.6c0-0.9-0.8-1.7-1.7-1.7h-21c0-0.1,0-0.1,0-0.1c-1.3-1.3-2.9-1.9-4.6-1.9l-8.2-8.1l26.9-11.1c0.3-0.1,0.7-0.5,0.9-0.9
		c0.2-0.4,0.2-0.9,0-1.3l-5.8-14.1l0,0L62.2,1c-0.3-0.9-1.3-1.2-2.2-0.9L1,24.4c-0.6,0.2-1,0.7-1,1.4C-0.1,26.4,0.2,27.1,0.6,27.6z
		 M77.4,56.8H59.8c0.1-0.4,0.1-0.8,0.1-1.1c0-0.4,0-0.8-0.1-1.1h17.6V56.8L77.4,56.8z M50.6,55.7c0-0.8,0.3-1.5,0.9-2.1l0,0
		c0.5-0.6,1.3-0.9,2.1-0.9s1.5,0.3,2.1,0.9c0.6,0.5,0.9,1.3,0.9,2.1c0,0.8-0.3,1.5-0.9,2.1c-0.5,0.6-1.3,0.9-2.1,0.9
		s-1.5-0.3-2.1-0.9C51,57.3,50.7,56.5,50.6,55.7z M39.9,43.6l2.1-0.9l7.9,7.9c-0.2,0.3-0.6,0.5-0.8,0.7c-0.3,0.2-0.5,0.5-0.7,0.8
		L39.9,43.6z M10.4,39.1l1.9,4.7L11,44.4l-1.9-4.7L10.4,39.1z M11.9,34.2l3.6,2.1c0.3,0.1,0.6,0.2,0.9,0.2c0.3,0,0.5,0,0.7-0.1
		l47.8-19.8l4.6,11L18.2,48.9l-2-4.8l0,0L13,36.3l0,0L11.9,34.2z M5.5,26.1L59.8,3.7l4,9.8L16.7,33L5.5,26.1z"/>
</g>
</svg>
