<?xml version="1.0" encoding="utf-8"?>
<!-- Generator: Adobe Illustrator 25.2.1, SVG Export Plug-In . SVG Version: 6.00 Build 0)  -->
<svg version="1.1" id="Layer_1" xmlns="http://www.w3.org/2000/svg" xmlns:xlink="http://www.w3.org/1999/xlink" x="0px" y="0px"
	 viewBox="0 0 100 100" style="enable-background:new 0 0 100 100;" xml:space="preserve">
<style type="text/css">
	.st0{fill:#E4E4E4;}
</style>
<path class="st0" d="M8.1,2.7c-1.4,0-2.8,0.5-3.8,1.6c-2.1,2.1-2.1,5.6,0,7.7l38,38l-38,38c-2.1,2.1-2.1,5.6,0,7.7
	c1,1,2.4,1.6,3.8,1.6s2.8-0.6,3.8-1.6l38-38l38,38c1,1,2.4,1.6,3.8,1.6c1.4,0,2.7-0.5,3.8-1.6c2.1-2.1,2.1-5.6,0-7.7l-38-38l38-38
	c2.1-2.1,2.1-5.6,0-7.7s-5.6-2.1-7.7,0l-38,38l-38-38C10.9,3.3,9.5,2.7,8.1,2.7L8.1,2.7z"/>
</svg>
