<svg width="84" height="81" viewBox="0 0 84 81" fill="none" xmlns="http://www.w3.org/2000/svg">
<path d="M51.7999 15.7C51.7999 9.99998 47.1999 5.29997 41.3999 5.29997C35.6999 5.29997 31.0999 9.89998 31.0999 15.7C31.0999 21.5 35.6999 26.1 41.3999 26.1C47.1999 26.1 51.7999 21.4 51.7999 15.7ZM61.2999 28.4C58.9999 28.4 56.2999 29.4 53.7999 31.1C55.9999 32.8 58.0999 35.1 59.7999 37.8C60.6999 39 61.3999 40.2 61.9999 41.7C70.0999 42.3 76.6999 47.7 79.1999 55C79.2999 54.5 79.2999 54.1 79.2999 53.7C79.1999 38 68.6999 28.4 61.2999 28.4ZM54.4999 7.79997C55.9999 10.2 56.8999 13 56.8999 16C56.8999 18.2 56.3999 20.2 55.6999 22.1C57.2999 23.3 59.1999 23.9 61.2999 23.9C63.9999 23.9 66.3999 22.8 68.0999 21C68.2999 20.7 68.5999 20.4 68.9999 20C70.0999 18.4 70.6999 16.6 70.6999 14.5C70.6999 9.29998 66.3999 4.99998 61.1999 4.99998C58.4999 4.99998 56.1999 6.09997 54.4999 7.79997ZM22.1999 62.4C22.5999 63.4 23.1999 64.1 23.8999 64.8C24.7999 65.5 25.8999 66.3 27.1999 66.8C31.1999 68.5 37.0999 69.2 42.7999 69.1C41.6999 66.7 41.0999 64 41.0999 61.2C41.0999 52.3 47.0999 44.9 55.0999 42.4C55.5999 42.3 56.1999 42.2 56.6999 42C54.7999 38.8 52.3999 36.3 49.8999 34.6C48.5999 33.6 47.2999 32.9 45.9999 32.4C44.3999 31.8 42.9999 31.4 41.4999 31.4C40.2999 31.4 38.8999 31.7 37.5999 32.1C36.1999 32.6 34.8999 33.2 33.5999 34.2C27.3999 38.3 21.6999 47.2 21.6999 59.4C21.5999 60.6 21.7999 61.5 22.1999 62.4ZM13.1999 14.6C13.1999 16.7 13.7999 18.5 14.9999 20.1C15.3999 20.5 15.5999 20.8 15.8999 21.2C17.5999 23 19.9999 24.1 22.6999 24.1C24.4999 24.1 26.1999 23.6 27.5999 22.6C26.6999 20.5 26.2999 18.3 26.2999 16C26.2999 12.7 27.2999 9.79997 28.9999 7.39997C27.2999 5.89997 25.1999 5.09998 22.7999 5.09998C17.3999 5.09998 13.1999 9.39998 13.1999 14.6ZM29.8999 30.7C27.5999 29.1 24.9999 28.3 22.7999 28.3C15.3999 28.3 4.8999 37.9 4.8999 53.5C4.8999 55.5 5.4999 57 6.9999 58.4C8.8999 60.2 12.7999 61.4 17.1999 61.9C16.9999 61 16.9999 60.2 16.9999 59.2C16.7999 52 19.2999 44 23.3999 37.8C25.1999 34.9 27.3999 32.5 29.8999 30.7ZM8.7999 14.5C8.7999 6.79998 14.9999 0.599976 22.6999 0.599976C26.1999 0.599976 29.3999 1.89998 31.7999 4.09998C34.4999 1.89998 37.7999 0.699975 41.3999 0.699975C45.2999 0.699975 48.7999 2.19998 51.4999 4.49998C53.8999 2.09998 57.3999 0.599976 61.0999 0.599976C68.7999 0.599976 74.9999 6.79998 74.9999 14.5C74.9999 18 73.6999 21.3 71.2999 23.9C70.7999 24.6 70.6999 25.4 70.6999 26.1C70.7999 26.6 70.8999 27.1 71.2999 27.4C73.5999 29.1 75.6999 31.3 77.4999 34.1C81.2999 39.7 83.4999 47 83.4999 53.6C83.4999 56.8 82.1999 59.5 80.0999 61.7C80.0999 61.7 80.0999 61.8 79.9999 61.8C79.5999 72.3 71.0999 80.7 60.4999 80.7C54.6999 80.7 49.3999 78.1 45.8999 74.1C36.2999 75 25.3999 73.2 20.5999 68.4C20.0999 67.9 19.6999 67.4 19.2999 67C12.9999 66.6 6.9999 64.9 3.7999 61.8C1.5999 59.6 0.399902 56.9 0.399902 53.7C0.399902 47.1 2.5999 39.8 6.1999 34.2C7.9999 31.4 10.0999 29.2 12.3999 27.5C12.7999 27.1 12.8999 26.6 12.9999 26.2C13.0999 25.5 12.8999 24.6 12.3999 24C10.1999 21.4 8.7999 18.2 8.7999 14.5ZM70.0999 57.3C70.7999 56.6 70.9999 55.5 70.5999 54.7C69.8999 53.2 67.7999 52.7 66.5999 54C63.8999 57.1 61.1999 60.1 58.3999 63.1C57.3999 62.2 56.4999 61.3 55.4999 60.4C54.2999 59.2 52.0999 59.7 51.4999 61.3C51.0999 62.2 51.3999 63.3 52.0999 63.9L56.7999 68.4C57.2999 68.9 57.8999 69.1 58.4999 69.1C59.1999 69.1 59.7999 68.8 60.2999 68.3L62.9999 65.2C65.3999 62.5 67.7999 59.9 70.0999 57.3Z" fill="#003554"/>
</svg>
