
<?xml version="1.0" encoding="utf-8"?>
<!-- Generator: Adobe Illustrator 24.1.3, SVG Export Plug-In . SVG Version: 6.00 Build 0)  -->
<svg version="1.1"
	 id="Layer_1" xmlns:cc="http://creativecommons.org/ns#" xmlns:dc="http://purl.org/dc/elements/1.1/" xmlns:inkscape="http://www.inkscape.org/namespaces/inkscape" xmlns:rdf="http://www.w3.org/1999/02/22-rdf-syntax-ns#" xmlns:sodipodi="http://sodipodi.sourceforge.net/DTD/sodipodi-0.dtd" xmlns:svg="http://www.w3.org/2000/svg"
	 xmlns="http://www.w3.org/2000/svg" xmlns:xlink="http://www.w3.org/1999/xlink" x="0px" y="0px" viewBox="0 0 100 100"
	 style="enable-background:new 0 0 100 100;" xml:space="preserve">
<style type="text/css">
	.st0{fill:#9DA8AF;}
</style>
<g transform="translate(0,-952.36218)">
	<path class="st0" d="M77.6,974.8c-2-2-5.1-2-7.1,0L50,995.3l-20.5-20.5c-2-2-5.1-2-7.1,0c-2,2-2,5.1,0,7.1l20.5,20.5l-20.5,20.5
		c-2,2-2,5.1,0,7.1c2,2,5.1,2,7.1,0l20.5-20.5l20.5,20.5c2,2,5.1,2,7.1,0c2-2,2-5.1,0-7.1l-20.5-20.5l20.5-20.5
		C79.5,979.9,79.5,976.7,77.6,974.8z"/>
</g>
</svg>
