
<!-- Generator: Adobe Illustrator 24.1.3, SVG Export Plug-In . SVG Version: 6.00 Build 0)  -->
<svg version="1.1" id="Layer_1" xmlns="http://www.w3.org/2000/svg" xmlns:xlink="http://www.w3.org/1999/xlink" x="0px" y="0px"
	 viewBox="0 0 100 100" style="enable-background:new 0 0 100 100;" xml:space="preserve">
<style type="text/css">
	.st0{fill:#C33C54;}
</style>
<path class="st0" d="M75.5,6.8l-38,38c-0.5,0.5-0.8,1.1-0.9,1.8l-2.2,15.5c-0.1,1,0.2,2,0.9,2.7c0.7,0.7,1.7,1,2.7,0.9l15.5-2.2
	c0.7-0.1,1.3-0.4,1.8-0.9l38-38c4.8-4.9,4.8-12.8,0-17.7C88.3,2.1,80.5,2.1,75.5,6.8z M88.8,20L51.5,57.3l-10.3,1.5l1.5-10.3
	L80,11.2c2.5-2.4,6.4-2.4,8.8,0C91.2,13.7,91.2,17.6,88.8,20z"/>
<path class="st0" d="M12.5,96.9h59.4c5.2,0,9.4-4.2,9.4-9.4V53.1c0-1.7-1.4-3.1-3.1-3.1S75,51.4,75,53.1v34.4c0,1.7-1.4,3.1-3.1,3.1
	H12.5c-1.7,0-3.1-1.4-3.1-3.1V28.1c0-1.7,1.4-3.1,3.1-3.1h34.4c1.7,0,3.1-1.4,3.1-3.1c0-1.7-1.4-3.1-3.1-3.1H12.5
	c-5.2,0-9.4,4.2-9.4,9.4v59.4C3.1,92.7,7.3,96.9,12.5,96.9z"/>
</svg>
