<svg width="42" height="30" viewBox="0 0 42 30" fill="none" xmlns="http://www.w3.org/2000/svg">
<path d="M0.634146 1.59998H41.3659C41.7073 1.59998 42 1.23076 42 0.799991C42 0.369226 41.7561 0 41.4146 0H0.634146C0.292683 0 0 0.369226 0 0.799991C0 1.23076 0.292683 1.59998 0.634146 1.59998Z" fill="#E4E4E4"/>
<path d="M41.4146 13.8456H0.634146C0.292683 13.8456 0 14.2148 0 14.6455C0 15.0763 0.292683 15.384 0.634146 15.384H41.3659C41.7073 15.384 42 15.0148 42 14.584C42 14.1532 41.7561 13.8456 41.4146 13.8456Z" fill="#E4E4E4"/>
<path d="M41.4146 27.6923H0.634146C0.292683 27.6923 0 28.0615 0 28.4923C0 28.923 0.292683 29.2922 0.634146 29.2922H41.3659C41.7073 29.2922 42 28.923 42 28.4923C42 28 41.7561 27.6923 41.4146 27.6923Z" fill="#E4E4E4"/>
</svg>
