<?xml version="1.0" encoding="utf-8"?>
<!-- Generator: Adobe Illustrator 24.1.3, SVG Export Plug-In . SVG Version: 6.00 Build 0)  -->
<svg version="1.1" id="Layer_1" xmlns="http://www.w3.org/2000/svg" xmlns:xlink="http://www.w3.org/1999/xlink" x="0px" y="0px"
	 viewBox="0 0 100 100" style="enable-background:new 0 0 100 100;" xml:space="preserve">
<style type="text/css">
	.st0{fill-rule:evenodd;clip-rule:evenodd;fill:#9DA8AF;}
</style>
<g>
	<path class="st0" d="M56.2,0c7,0,12.6,5.6,12.6,12.6s-5.7,12.6-12.6,12.6c-7,0-12.6-5.7-12.6-12.6S49.2,0,56.2,0z M90.7,22
		c4.9,4.9,4.9,12.9,0,17.8c-4.9,4.9-12.9,4.9-17.8,0c-4.9-4.9-4.9-12.9,0-17.8C77.7,17,85.7,17,90.7,22z M99.5,61.8
		c0,7-5.6,12.6-12.6,12.6c-7,0-12.6-5.7-12.6-12.6c0-7,5.6-12.6,12.6-12.6C93.8,49.2,99.5,54.9,99.5,61.8z M75.8,94.6
		c-4,4-10.4,4-14.4,0c-4-4-4-10.4,0-14.4c4-4,10.4-4,14.4,0C79.8,84.2,79.8,90.6,75.8,94.6z M37.6,100c-4.1,0-7.5-3.3-7.5-7.5
		c0-4.1,3.3-7.5,7.5-7.5s7.5,3.3,7.5,7.5C45.1,96.7,41.8,100,37.6,100z M6.9,79.5C4,76.6,4,71.9,6.9,69c2.9-2.9,7.6-2.9,10.5,0
		s2.9,7.6,0,10.5C14.4,82.4,9.8,82.4,6.9,79.5z M0.5,43.3c0-3.6,2.9-6.5,6.5-6.5c3.6,0,6.5,2.9,6.5,6.5c0,3.6-2.9,6.5-6.5,6.5
		C3.4,49.8,0.5,46.9,0.5,43.3z M21.3,13.8c2.2-2.2,5.7-2.2,7.9,0c2.2,2.2,2.2,5.7,0,7.9c-2.2,2.2-5.7,2.2-7.9,0S19.1,16,21.3,13.8z"
		/>
</g>
</svg>
