<?xml version="1.0" encoding="utf-8"?>
<!-- Generator: Adobe Illustrator 25.2.1, SVG Export Plug-In . SVG Version: 6.00 Build 0)  -->
<svg version="1.1" id="Layer_1" xmlns="http://www.w3.org/2000/svg" xmlns:xlink="http://www.w3.org/1999/xlink" x="0px" y="0px"
	 viewBox="0 0 84.4 84.4" style="enable-background:new 0 0 84.4 84.4;" xml:space="preserve">
<style type="text/css">
	.st0{fill:#FFFFFF;}
</style>
<g>
	<path class="st0" d="M72.7,71.3c7.3-7.6,11.7-17.9,11.7-29.2c0-12.1-5.1-23-13.3-30.7c0,0,0,0,0-0.1c0,0-0.1,0-0.1-0.1
		C63.4,4.3,53.3,0,42.2,0S21,4.3,13.4,11.4c0,0-0.1,0-0.1,0.1c0,0,0,0,0,0.1C5.1,19.2,0,30.1,0,42.2c0,11.3,4.5,21.6,11.7,29.2
		c0,0,0,0.1,0.1,0.1c0,0,0,0,0.1,0c7.7,7.9,18.4,12.9,30.3,12.9s22.6-5,30.3-12.9c0,0,0,0,0.1,0C72.6,71.4,72.6,71.4,72.7,71.3z
		 M3.2,43.8h3.4c0.6,1.8,2.4,3.1,4.4,3.1s3.8-1.3,4.4-3.1H22c0.1,4.9,0.5,9.6,1.3,13.9c-0.8,0.8-1.4,2-1.4,3.3c0,0.2,0,0.3,0,0.5
		c-3.2,1.8-6.2,4-9,6.6C7.2,61.5,3.5,53.1,3.2,43.8z M31.3,60.9L31.3,60.9c3-0.9,6.2-1.4,9.4-1.5v21.7C35.8,80,31.4,74,28.5,65.3
		C30.1,64.5,31.3,62.9,31.3,60.9z M43.8,59.4c4.6,0.2,9,1.1,13.1,2.8c-2.8,10.4-7.7,17.7-13.1,18.9V59.4z M43.8,56.3V56
		c1.8-0.6,3.1-2.4,3.1-4.4s-1.3-3.8-3.1-4.4v-3.4h15.6c-0.1,5.4-0.8,10.6-1.8,15.4C53.2,57.5,48.6,56.5,43.8,56.3z M43.8,40.6V25
		c3.6-0.1,7.1-0.7,10.4-1.7c0.8,1,2,1.6,3.4,1.7c1.1,4.8,1.7,10.1,1.8,15.7L43.8,40.6L43.8,40.6z M53.1,20.3L53.1,20.3
		c-3,0.9-6.2,1.4-9.4,1.5V3.3c4.4,1,8.4,5.9,11.3,13.3C53.9,17.4,53.1,18.8,53.1,20.3z M61.1,17c-0.8-0.8-1.8-1.2-3-1.3
		c-1.9-4.9-4.2-8.8-6.9-11.5c6.1,1.4,11.7,4.3,16.4,8.3C65.5,14.2,63.4,15.7,61.1,17z M40.6,3.3v18.5c-4.2-0.2-8.4-1-12.3-2.5
		C31.2,10.5,35.7,4.4,40.6,3.3z M25.4,18.1c-3.1-1.5-5.9-3.3-8.6-5.6c4.6-4,10.2-6.9,16.4-8.3C30.1,7.3,27.4,12.1,25.4,18.1z
		 M40.6,25v15.7H25c0.1-6.6,1-12.8,2.5-18.3C31.7,23.9,36.1,24.8,40.6,25z M40.6,43.8v3.4c-1.8,0.6-3.1,2.4-3.1,4.4s1.3,3.8,3.1,4.4
		v0.3C37,56.4,33.5,57,30.1,58c-0.9-1-2.2-1.7-3.6-1.7c-0.1,0-0.2,0-0.4,0c-0.7-3.9-1.1-8.2-1.2-12.5C24.9,43.8,40.6,43.8,40.6,43.8
		z M23.3,64.3c0.5,0.5,1.2,0.9,1.9,1.1c2,6.4,4.8,11.5,8.1,14.8c-6.9-1.6-13.2-5.1-18.1-9.9C17.6,67.9,20.3,65.9,23.3,64.3z
		 M59.8,63.6c3.4,1.7,6.6,4,9.5,6.8c-5,4.8-11.2,8.3-18.1,9.9C54.8,76.6,57.8,70.8,59.8,63.6z M60.6,60.5c1.1-5.1,1.8-10.7,1.9-16.7
		h18.7c-0.4,9.3-4,17.8-9.8,24.3C68.2,64.9,64.5,62.4,60.6,60.5z M81.2,40.6H62.5c-0.1-5.9-0.8-11.5-1.9-16.6
		c1.2-0.9,1.9-2.2,1.9-3.8c0-0.2,0-0.3-0.1-0.5c2.6-1.4,5.1-3.2,7.4-5.2C76.6,21.4,80.8,30.5,81.2,40.6z M14.5,14.7
		c3,2.6,6.4,4.8,10,6.5c-1.6,5.7-2.5,12.4-2.6,19.5h-6.6c-0.6-1.8-2.4-3.1-4.4-3.1s-3.8,1.3-4.4,3.1H3.2
		C3.6,30.5,7.8,21.4,14.5,14.7z"/>
</g>
</svg>
