<?xml version="1.0" encoding="utf-8"?>
<!-- Generator: Adobe Illustrator 25.2.1, SVG Export Plug-In . SVG Version: 6.00 Build 0)  -->
<svg version="1.1" id="Layer_1" xmlns="http://www.w3.org/2000/svg" xmlns:xlink="http://www.w3.org/1999/xlink" x="0px" y="0px"
	 viewBox="0 0 100 100" style="enable-background:new 0 0 100 100;" xml:space="preserve">
<style type="text/css">
	.st0{fill:#9DA8AF;}
</style>
<path class="st0" d="M87.5,8.3h-25c-2.3,0-4.2,1.9-4.2,4.2s1.9,4.2,4.2,4.2h14.9L42.9,51.2c-1.7,1.6-1.7,4.2-0.1,5.9
	c1.6,1.7,4.2,1.7,5.9,0.1c0,0,0.1-0.1,0.1-0.1l34.6-34.6v14.9c0,2.3,1.9,4.2,4.2,4.2c2.3,0,4.2-1.9,4.2-4.2v-25
	C91.7,10.2,89.8,8.3,87.5,8.3z"/>
<path class="st0" d="M79.2,44.1c-2.3,0-4.2,1.9-4.2,4.2v29.8c0,2.9-2.3,5.2-5.2,5.2H21.9c-2.9,0-5.2-2.3-5.2-5.2V30.2
	c0-2.9,2.3-5.2,5.2-5.2h25.9c2.3,0,4.2-1.9,4.2-4.2s-1.9-4.2-4.2-4.2H21.9c-7.5,0-13.5,6.1-13.5,13.5v47.9c0,7.5,6.1,13.5,13.5,13.5
	h47.9c7.5,0,13.5-6.1,13.5-13.5V48.3C83.3,46,81.5,44.1,79.2,44.1z"/>
</svg>
