<?xml version="1.0" encoding="utf-8"?>
<!-- Generator: Adobe Illustrator 24.1.3, SVG Export Plug-In . SVG Version: 6.00 Build 0)  -->
<svg version="1.1"
	 id="Layer_1" xmlns:cc="http://creativecommons.org/ns#" xmlns:dc="http://purl.org/dc/elements/1.1/" xmlns:inkscape="http://www.inkscape.org/namespaces/inkscape" xmlns:rdf="http://www.w3.org/1999/02/22-rdf-syntax-ns#" xmlns:sodipodi="http://sodipodi.sourceforge.net/DTD/sodipodi-0.dtd" xmlns:svg="http://www.w3.org/2000/svg"
	 xmlns="http://www.w3.org/2000/svg" xmlns:xlink="http://www.w3.org/1999/xlink" x="0px" y="0px" viewBox="0 0 100 100"
	 style="enable-background:new 0 0 100 100;" xml:space="preserve">
<style type="text/css">
	.st0{fill-rule:evenodd;clip-rule:evenodd;fill:#9DA8AF;}
</style>
<g transform="translate(0,-290.64999)">
	<path class="st0" d="M33.3,294.7c-2.3,0-4.1,1.9-4.1,4.2c0,0,0,0,0,0v4.2H16.7c-6.9,0-12.5,5.7-12.5,12.5V374
		c0,6.9,5.7,12.5,12.5,12.5h66.7c6.9,0,12.5-5.7,12.5-12.5v-58.3c0-6.9-5.7-12.5-12.5-12.5H70.8V299c0-2.3-1.8-4.2-4.1-4.2
		c-0.1,0-0.1,0-0.2,0c-2.3,0-4.1,1.9-4.1,4.2c0,0,0,0,0,0v4.2h-8.3V299c0-2.3-1.8-4.2-4.1-4.2c0,0-0.1,0-0.1,0
		c-2.3,0-4.1,1.9-4.1,4.2c0,0,0,0,0,0v4.2h-8.3V299c0-2.3-1.8-4.2-4.1-4.2C33.4,294.7,33.3,294.7,33.3,294.7z M16.7,311.5h12.5v4.2
		c0.1,2.3,2,4.1,4.3,4.1c2.2,0,4-1.8,4.1-4.1v-4.2h8.3v4.2c0,2.3,1.9,4.2,4.2,4.2c2.3,0,4.2-1.9,4.2-4.2v-4.2h8.3v4.2
		c-0.1,2.3,1.8,4.2,4.1,4.3c2.3,0.1,4.2-1.8,4.3-4.1c0-0.1,0-0.1,0-0.2v-4.2h12.5c2.4,0,4.2,1.8,4.2,4.2v12.5h-75v-12.5
		C12.5,313.3,14.3,311.5,16.7,311.5z M12.5,336.5h75V374c0,2.4-1.8,4.2-4.2,4.2H16.7c-2.4,0-4.2-1.8-4.2-4.2V336.5z M33.3,344.8
		c-2.3,0-4.2,1.9-4.2,4.2c0,2.3,1.9,4.2,4.2,4.2c2.3,0,4.2-1.9,4.2-4.2C37.5,346.7,35.6,344.8,33.3,344.8z M50,344.8
		c-2.3,0-4.2,1.9-4.2,4.2c0,2.3,1.9,4.2,4.2,4.2s4.2-1.9,4.2-4.2C54.2,346.7,52.3,344.8,50,344.8z M66.7,344.8
		c-2.1,0-3.9,1.6-4.1,3.8c0,0.1,0,0.3,0,0.4c0,2.1,1.6,3.9,3.8,4.1c0.1,0,0.3,0,0.4,0c2.3,0,4.2-1.9,4.2-4.2
		C70.8,346.7,69,344.8,66.7,344.8z M33.3,361.5c-2.3,0-4.2,1.9-4.2,4.2s1.9,4.2,4.2,4.2c2.3,0,4.2-1.9,4.2-4.2
		S35.6,361.5,33.3,361.5z M50,361.5c-2.3,0-4.2,1.9-4.2,4.2s1.9,4.2,4.2,4.2s4.2-1.9,4.2-4.2S52.3,361.5,50,361.5z M66.7,361.5
		c-2.1,0-3.9,1.6-4.1,3.8c0,0.1,0,0.3,0,0.4c0,2.1,1.6,3.9,3.8,4.1c0.1,0,0.3,0,0.4,0c2.3,0,4.2-1.9,4.2-4.2S69,361.5,66.7,361.5z"
		/>
</g>
</svg>
