<svg height='100px' width='100px'  fill="#9DA8AF" xmlns="http://www.w3.org/2000/svg" xmlns:xlink="http://www.w3.org/1999/xlink" version="1.1" x="0px" y="0px" viewBox="0 0 1024 1024" style="enable-background:new 0 0 1024 1024;" xml:space="preserve"><path d="M817,249.4c-34.1-54.4-83-99.7-140.3-128.8C617.1,90.3,549.3,77,482.7,83.2C417.3,89.3,354,113,301.6,152.7  C249.2,192.3,208.7,245,184,305.9c-24.2,59.9-30.9,126.2-20.2,189.8c9.9,58.6,34.5,114.3,65.4,164.7  c30.5,49.8,67.7,95.6,107.9,137.8c32.8,34.3,67.8,66.4,104.5,96.4c20.3,16.6,41,32.7,62.6,47.6c1,0.7,1.9,1.3,2.9,2  c4.2,2.8,11,2.8,15.1,0c11.8-7.9,23.2-16.5,34.4-25.1c29.2-22.3,57.3-45.8,84.4-70.7c35.4-32.6,68.9-67.3,99.3-104.6  c33.5-41,63.8-85,86.9-132.8c23.4-48.3,39.5-100.1,42.8-153.8c0.4-6.5,0.6-13,0.6-19.5v-0.1C870.7,371.4,852.2,305.6,817,249.4z   M616.4,437.8c0,0.3,0,0.5,0,0.8c-0.8,46.8-34.5,89.6-81.1,98.6c-42,8-85.2-10.3-107.5-47.1c-22.4-37-17.8-84.2,9.1-117.4  c26.1-32.3,73-45,111.9-30.7c39.9,14.8,66.9,52.3,67.6,94.9c0,0.3,0,0.5,0,0.8V437.8z"></path></svg>