<?xml version="1.0" encoding="utf-8"?>
<!-- Generator: Adobe Illustrator 24.1.3, SVG Export Plug-In . SVG Version: 6.00 Build 0)  -->
<svg version="1.1" id="Layer_1" xmlns="http://www.w3.org/2000/svg" xmlns:xlink="http://www.w3.org/1999/xlink" x="0px" y="0px"
	 viewBox="0 0 100 100" style="enable-background:new 0 0 100 100;" xml:space="preserve">
<style type="text/css">
	.st0{fill-rule:evenodd;clip-rule:evenodd;fill:#E4E4E4;}
	.st1{fill:#E4E4E4;}
</style>
<g>
	<path class="st0" d="M68.2,31.2v37.6c0,1.6-1.3,2.9-2.9,2.9h-6.8c-1.6,0-2.9-1.3-2.9-2.9V31.2c0-1.6,1.3-2.9,2.9-2.9h6.8
		C67,28.3,68.2,29.6,68.2,31.2z"/>
	<path class="st0" d="M46.5,31.1v37.6c0,1.6-1.3,2.9-2.9,2.9h-6.8c-1.6,0-2.9-1.3-2.9-2.9V31.1c0-1.6,1.3-2.9,2.9-2.9h6.8
		C45.2,28.2,46.5,29.5,46.5,31.1z"/>
	<path class="st0" d="M98,49.9C98,76.5,76.5,98,49.9,98C23.5,98,2,76.5,2,49.9C2,23.5,23.5,2,49.9,2C76.5,2,98,23.5,98,49.9z
		 M92.1,49.9c0,23.4-18.8,42.1-42.1,42.1c-23.3,0-42.1-18.8-42.1-42.1c0-23.3,18.9-42.1,42.1-42.1C73.3,7.8,92.1,26.7,92.1,49.9z"/>
</g>
<path class="st1" d="M50,0C22.4,0,0,22.5,0,50s22.4,50,50,50s50-22.4,50-50S77.4,0,50,0z M50,90c-22,0-40-18-40-40s18-40,40-40
	s40,18,40,40S72,90,50,90z"/>
</svg>
