<?xml version="1.0" encoding="utf-8"?>
<!-- Generator: Adobe Illustrator 25.2.1, SVG Export Plug-In . SVG Version: 6.00 Build 0)  -->
<svg version="1.1"
	 id="Layer_1" xmlns:cc="http://creativecommons.org/ns#" xmlns:dc="http://purl.org/dc/elements/1.1/" xmlns:inkscape="http://www.inkscape.org/namespaces/inkscape" xmlns:rdf="http://www.w3.org/1999/02/22-rdf-syntax-ns#" xmlns:sodipodi="http://sodipodi.sourceforge.net/DTD/sodipodi-0.dtd" xmlns:svg="http://www.w3.org/2000/svg"
	 xmlns="http://www.w3.org/2000/svg" xmlns:xlink="http://www.w3.org/1999/xlink" x="0px" y="0px" viewBox="0 0 100 100"
	 style="enable-background:new 0 0 100 100;" xml:space="preserve">
<style type="text/css">
	.st0{fill:#9DA8AF;}
</style>
<g transform="translate(0,-288.53332)">
	<path class="st0" d="M50,307.3c-2.6,0-5.2,0.3-7.7,1c-1,0.3-1.7,1.2-1.8,2.3l0,5.6l-5.2,3l-4.9-2.8c-0.9-0.5-2.1-0.4-2.8,0.4
		c-3.6,3.7-6.3,8.3-7.7,13.3c-0.3,1,0.2,2.1,1.1,2.7l4.8,2.8v6l-4.8,2.8c-0.9,0.5-1.4,1.6-1.1,2.7c1.4,5,4.1,9.6,7.7,13.4
		c0.7,0.8,1.9,0.9,2.8,0.4l4.8-2.8l5.2,3v5.6c0,1.1,0.7,2,1.8,2.3c2.5,0.7,5.1,1,7.7,1c0,0,0,0,0,0c2.6,0,5.2-0.4,7.7-1
		c1-0.3,1.7-1.2,1.8-2.3v-5.6l5.2-3l4.8,2.8c0.9,0.5,2.1,0.4,2.9-0.4c3.6-3.7,6.3-8.3,7.7-13.3c0.3-1-0.2-2.1-1.1-2.7l-4.8-2.8v-6
		l4.8-2.8c0.9-0.5,1.4-1.6,1.1-2.7c-1.4-5-4.1-9.6-7.7-13.3c-0.7-0.8-1.9-0.9-2.8-0.4l-4.8,2.8l-5.2-3l0-5.6c0-1.1-0.7-2-1.8-2.3
		C55.2,307.6,52.6,307.3,50,307.3C50,307.3,50,307.3,50,307.3L50,307.3z M50,312c1.6,0,3.2,0.3,4.8,0.6l0,4.9c0,0.8,0.4,1.6,1.2,2
		l7.5,4.3c0.7,0.4,1.6,0.4,2.3,0l4.1-2.3c2.1,2.5,3.7,5.3,4.8,8.3l-4,2.4c-0.7,0.4-1.1,1.2-1.2,2v8.7c0,0.8,0.4,1.6,1.2,2l4,2.4
		c-1.1,3-2.7,5.8-4.8,8.3l-4.1-2.3c-0.7-0.4-1.6-0.4-2.3,0l-7.5,4.3c-0.7,0.4-1.2,1.2-1.2,2v4.9c-1.6,0.3-3.2,0.6-4.8,0.6
		c-1.6,0-3.2-0.3-4.8-0.6l0-4.9c0-0.8-0.4-1.6-1.2-2l-7.5-4.3c-0.7-0.4-1.6-0.4-2.3,0l-4.1,2.3c-2.1-2.5-3.7-5.3-4.8-8.3l4-2.4
		c0.7-0.4,1.2-1.2,1.2-2v-8.7c0-0.8-0.4-1.6-1.2-2l-4.1-2.4c1.1-3,2.7-5.8,4.8-8.3l4.1,2.3c0.7,0.4,1.6,0.4,2.4,0l7.5-4.4
		c0.7-0.4,1.2-1.2,1.2-2l0-4.9C46.8,312.3,48.4,312,50,312L50,312z"/>
	<path class="st0" d="M50,329.9c-4.7,0-8.6,3.9-8.6,8.7c0,4.7,3.9,8.7,8.6,8.7s8.7-3.9,8.7-8.7C58.6,333.8,54.7,329.9,50,329.9z
		 M50,334.6c2.2,0,4,1.8,4,4c0,2.2-1.8,3.9-4,3.9s-3.9-1.7-3.9-3.9C46,336.3,47.8,334.6,50,334.6z"/>
</g>
</svg>
