<svg width="30" height="30" viewBox="0 0 30 30" fill="none" xmlns="http://www.w3.org/2000/svg">
<path d="M6.63139 13.236C6.63951 14.5029 5.60961 15.5461 4.34271 15.5542C3.07581 15.5623 2.03261 14.5324 2.02448 13.2656C2.01635 11.9987 3.04626 10.9554 4.31316 10.9473C5.58006 10.9392 6.62326 11.9691 6.63139 13.236ZM11.3339 10.1536L6.47045 15.0799C5.38333 16.181 3.56936 16.1927 2.4682 15.1055C1.28648 13.9386 1.39643 12.1362 2.44271 11.1318L11.8835 1.5691C12.0551 1.39523 12.0535 1.13609 11.8796 0.964443C11.7058 0.792792 11.4466 0.794455 11.275 0.968322L1.83417 10.531C0.409473 11.9744 0.368761 14.2912 1.86779 15.7714C3.30828 17.1932 5.62508 17.24 7.10814 15.7378L11.9716 10.8115C12.1432 10.6374 12.1416 10.3785 11.9677 10.2066C11.7937 10.0067 11.5057 10.0086 11.3339 10.1536Z" fill="#9DA8AF"/>
<path d="M14.6794 25.5603C14.6464 24.2938 15.6556 23.2305 16.922 23.1975C18.1885 23.1644 19.2518 24.1736 19.2849 25.4401C19.3179 26.7066 18.3087 27.7699 17.0422 27.8029C15.7757 27.836 14.7125 26.8268 14.6794 25.5603Z" fill="#9DA8AF"/>
<path d="M15.0844 23.4183L19.85 18.3973C19.9894 18.2208 19.9819 17.933 19.7764 17.7655C19.5989 17.5973 19.3402 17.6041 19.1717 17.7813L14.4061 22.8023C12.9529 24.3334 13.0749 26.6474 14.5428 28.041C16.071 29.4911 18.3852 29.3751 19.7815 27.9043L29.0323 18.1577C29.2005 17.9805 29.1938 17.7214 29.0166 17.5532C28.8393 17.385 28.5803 17.3918 28.4121 17.569L19.1613 27.3156C18.1914 28.3939 16.3935 28.5624 15.1888 27.4192C14.0665 26.354 14.0191 24.5406 15.0844 23.4183Z" fill="#9DA8AF"/>
<path d="M19.8129 23.2458C19.6621 23.4047 19.6705 23.7279 19.8294 23.879C20.0059 24.0184 20.2937 24.0109 20.4331 23.8345L27.161 16.7461C27.3292 16.5689 27.3224 16.3098 27.1452 16.1416C26.968 15.9731 26.709 15.9799 26.5408 16.1574L19.8129 23.2458Z" fill="#9DA8AF"/>
<path d="M21.9592 17.8748C21.8751 17.9634 21.8494 18.0793 21.8524 18.1944C21.8554 18.3096 21.8872 18.424 21.975 18.4793C22.1522 18.6475 22.4113 18.6407 22.5795 18.4635L27.9057 12.8519C28.0739 12.6746 28.0672 12.4156 27.8899 12.2474C27.7127 12.0789 27.4537 12.0857 27.2855 12.2632L21.9592 17.8748Z" fill="#9DA8AF"/>
<path d="M14.4084 13.6179C14.4017 12.5814 15.2314 11.741 16.2679 11.7344C17.3045 11.7277 18.1448 12.5574 18.1515 13.5939C18.1581 14.6305 17.3285 15.4708 16.2919 15.4775C15.2554 15.4841 14.415 14.6545 14.4084 13.6179Z" fill="#9DA8AF"/>
<path d="M14.7063 15.1709C15.5756 16.0292 16.9865 16.0201 17.8447 15.1508L20.348 12.6152L22.8512 10.0797C23.023 9.93459 23.311 9.93275 23.4844 10.0756C23.6585 10.2473 23.6602 10.5064 23.4882 10.6803L18.4818 15.7514C17.1639 17.023 15.2313 16.8909 14.1055 15.7795C12.8886 14.6067 12.8761 12.6485 14.0776 11.4317L22.8032 2.59344C22.9748 2.41958 23.234 2.41791 23.4078 2.58957C23.5817 2.76122 23.5834 3.02035 23.4117 3.19422L14.6861 12.0325C13.8279 12.9018 13.8369 14.3127 14.7063 15.1709Z" fill="#9DA8AF"/>
<path d="M19.7017 8.37221C19.8733 8.19805 20.1325 8.19639 20.3063 8.36833C20.4514 8.54017 20.4532 8.8281 20.339 8.9728L18.0503 11.291C17.8958 11.4475 17.5719 11.4482 17.4169 11.2951C17.243 11.1234 17.2413 10.8643 17.413 10.6904L19.7017 8.37221Z" fill="#9DA8AF"/>
<path d="M21.6007 8.97789L25.3198 5.21077C25.4917 5.0657 25.7796 5.06385 25.953 5.20671C26.1271 5.37836 26.1288 5.63749 25.9569 5.81136L22.2378 9.57849C22.083 9.73526 21.7593 9.73532 21.6046 9.58255C21.4304 9.4109 21.4288 9.15176 21.6007 8.97789Z" fill="#9DA8AF"/>
<path d="M6.85602 9.96926C6.7021 10.1252 6.37876 10.1272 6.22257 9.97333C6.07749 9.80149 6.07565 9.51356 6.24748 9.36849L13.1135 2.4138C13.2852 2.23993 13.5443 2.23827 13.7182 2.40992C13.8923 2.58157 13.894 2.84071 13.722 3.01457L6.85602 9.96926Z" fill="#9DA8AF"/>
<path d="M11.7874 8.0286C11.7016 8.11553 11.5866 8.14506 11.4714 8.1458C11.3563 8.14654 11.2409 8.11849 11.1828 8.03248C11.0089 7.86083 11.0072 7.60169 11.1789 7.42782L16.6145 1.92202C16.7861 1.74816 17.0453 1.7465 17.2192 1.91815C17.3933 2.08979 17.395 2.34893 17.223 2.5228L11.7874 8.0286Z" fill="#9DA8AF"/>
</svg>
